<svg xmlns="http://www.w3.org/2000/svg" xmlns:xlink="http://www.w3.org/1999/xlink" width="49.955" height="52.936" viewBox="0 0 49.955 52.936">
  <defs>
    <style>
      .cls-1 {
        fill: none;
      }

      .cls-2 {
        clip-path: url(#clip-path);
      }

      .svg-color {
        fill: #fff;
      }
    </style>
    <clipPath id="clip-path">
      <rect class="cls-1" width="49.955" height="52.936"/>
    </clipPath>
  </defs>
  <g id="experience_1_" data-name="experience (1)" class="cls-2">
    <g id="experience_1_2" data-name="experience (1)" transform="translate(-14.416 0)">
      <path id="Trazado_16" data-name="Trazado 16" class="svg-color" d="M146.871,56.16l-.9.324a4.217,4.217,0,0,0-2.69,3.155l-.3,1.592a2.685,2.685,0,0,0,2.637,3.19h7.76a2.685,2.685,0,0,0,2.644-3.158l-.283-1.583a4.208,4.208,0,0,0-2.7-3.206l-.949-.344v-1.4a.772.772,0,0,0-.01-.115,3.805,3.805,0,0,0,1.089-2.65V49.883a3.69,3.69,0,0,0-7.38,0v2.149a3.68,3.68,0,0,0,1.087,2.6.77.77,0,0,0-.007.1Zm7.342,3.794.283,1.584a1.135,1.135,0,0,1-1.117,1.334h-7.76a1.134,1.134,0,0,1-1.114-1.348l.3-1.592a2.658,2.658,0,0,1,1.7-1.989l.586-.212c.015.015.029.03.045.044a3.577,3.577,0,0,0,4.689,0,.766.766,0,0,0,.067-.067l.619.224A2.652,2.652,0,0,1,154.213,59.953Zm-6.871-10.07a2.138,2.138,0,0,1,4.208-.532c-.1.049-.2.095-.307.137a2.578,2.578,0,0,1-1.944.177.775.775,0,1,0-.891,1.27,2.568,2.568,0,0,0,1.479.4A5.16,5.16,0,0,0,151.62,51v.965a2.246,2.246,0,0,1-.673,1.592,2.168,2.168,0,0,1-.668.448l-.05.021a2,2,0,0,1-.79.142,2.149,2.149,0,0,1-2.1-2.139Zm2.067,5.838h.071a3.6,3.6,0,0,0,1.061-.16V56.8a2.025,2.025,0,0,1-2.118,0V55.564A3.64,3.64,0,0,0,149.409,55.721Z" transform="translate(-115.23 -41.417)"/>
      <path id="Trazado_17" data-name="Trazado 17" class="svg-color" d="M81.539,337.455h24.149a.775.775,0,0,0,0-1.551H81.539a.775.775,0,0,0,0,1.551Z" transform="translate(-59.488 -301.175)"/>
      <path id="Trazado_18" data-name="Trazado 18" class="svg-color" d="M81.539,377.9h24.149a.775.775,0,0,0,0-1.551H81.539a.775.775,0,0,0,0,1.551Z" transform="translate(-59.488 -337.435)"/>
      <path id="Trazado_19" data-name="Trazado 19" class="svg-color" d="M81.539,418.335h24.149a.775.775,0,0,0,0-1.551H81.539a.775.775,0,0,0,0,1.551Z" transform="translate(-59.488 -373.692)"/>
      <path id="Trazado_20" data-name="Trazado 20" class="svg-color" d="M81.539,458.776h24.149a.775.775,0,0,0,0-1.551H81.539a.775.775,0,0,0,0,1.551Z" transform="translate(-59.488 -409.952)"/>
      <path id="Trazado_21" data-name="Trazado 21" class="svg-color" d="M80.764,255.8a.775.775,0,0,0,.775.775h24.149a.775.775,0,1,0,0-1.551H81.539A.775.775,0,0,0,80.764,255.8Z" transform="translate(-59.488 -228.657)"/>
      <path id="Trazado_22" data-name="Trazado 22" class="svg-color" d="M81.539,297.015h24.149a.775.775,0,0,0,0-1.551H81.539a.775.775,0,0,0,0,1.551Z" transform="translate(-59.488 -264.916)"/>
      <path id="Trazado_23" data-name="Trazado 23" class="svg-color" d="M53.819,337.433a.778.778,0,1,0-.778-.778A.778.778,0,0,0,53.819,337.433Z" transform="translate(-34.632 -301.15)"/>
      <path id="Trazado_24" data-name="Trazado 24" class="svg-color" d="M53.819,256.553a.778.778,0,1,0-.778-.778A.778.778,0,0,0,53.819,256.553Z" transform="translate(-34.632 -228.632)"/>
      <path id="Trazado_25" data-name="Trazado 25" class="svg-color" d="M53.819,296.993a.778.778,0,1,0-.778-.778A.778.778,0,0,0,53.819,296.993Z" transform="translate(-34.632 -264.891)"/>
      <path id="Trazado_26" data-name="Trazado 26" class="svg-color" d="M53.819,377.873a.778.778,0,1,0-.778-.778A.778.778,0,0,0,53.819,377.873Z" transform="translate(-34.632 -337.408)"/>
      <path id="Trazado_27" data-name="Trazado 27" class="svg-color" d="M53.819,418.314a.778.778,0,1,0-.778-.778A.778.778,0,0,0,53.819,418.314Z" transform="translate(-34.632 -373.668)"/>
      <path id="Trazado_28" data-name="Trazado 28" class="svg-color" d="M53.819,458.754a.778.778,0,1,0-.778-.778A.778.778,0,0,0,53.819,458.754Z" transform="translate(-34.632 -409.927)"/>
      <path id="Trazado_29" data-name="Trazado 29" class="svg-color" d="M63.135,12.213a5.361,5.361,0,0,1-.752-1.115A5.651,5.651,0,0,1,62.1,9.713a4.325,4.325,0,0,0-.962-2.667,4.326,4.326,0,0,0-2.667-.962A5.653,5.653,0,0,1,57.09,5.8a5.357,5.357,0,0,1-1.115-.751,5.841,5.841,0,0,0-1.853-1.118V3.7a3.705,3.705,0,0,0-3.7-3.7h-32.3a3.705,3.705,0,0,0-3.7,3.7V6.694a.775.775,0,0,0,1.551,0V3.7a2.153,2.153,0,0,1,2.15-2.15h32.3a2.153,2.153,0,0,1,2.15,2.15v.235a5.843,5.843,0,0,0-1.853,1.118A5.363,5.363,0,0,1,49.6,5.8a5.663,5.663,0,0,1-1.385.279,4.325,4.325,0,0,0-2.667.962,4.325,4.325,0,0,0-.962,2.667A5.653,5.653,0,0,1,44.31,11.1a5.357,5.357,0,0,1-.752,1.115,4.351,4.351,0,0,0-1.236,2.628,4.352,4.352,0,0,0,1.236,2.628,5.361,5.361,0,0,1,.752,1.115,5.652,5.652,0,0,1,.279,1.385,4.325,4.325,0,0,0,.962,2.667,4.325,4.325,0,0,0,2.667.962c.272.034.535.067.779.112V35.43a1.191,1.191,0,0,0,1.925.937l1.648-1.291V49.235a2.153,2.153,0,0,1-2.15,2.15h-32.3a2.153,2.153,0,0,1-2.15-2.15V10.109a.775.775,0,0,0-1.551,0V49.235a3.705,3.705,0,0,0,3.7,3.7h32.3a3.705,3.705,0,0,0,3.7-3.7V35.077l1.648,1.291A1.191,1.191,0,0,0,57.7,35.43V26.776a.775.775,0,1,0-1.551,0v7.915l-2.061-1.614a1.192,1.192,0,0,0-1.472,0l-2.064,1.616v-10.2l.17.134a4.352,4.352,0,0,0,2.628,1.236,4.353,4.353,0,0,0,2.628-1.236,5.364,5.364,0,0,1,1.115-.752,5.663,5.663,0,0,1,1.385-.279,4.326,4.326,0,0,0,2.668-.962,4.326,4.326,0,0,0,.962-2.667,5.657,5.657,0,0,1,.279-1.385,5.357,5.357,0,0,1,.752-1.115,4.351,4.351,0,0,0,1.236-2.628,4.352,4.352,0,0,0-1.236-2.628Zm-1.217,4.294a6.5,6.5,0,0,0-.967,1.482,6.82,6.82,0,0,0-.386,1.788,3.208,3.208,0,0,1-.519,1.761,3.209,3.209,0,0,1-1.761.519,6.822,6.822,0,0,0-1.788.386,6.5,6.5,0,0,0-1.482.967,3.2,3.2,0,0,1-1.667.9,3.2,3.2,0,0,1-1.667-.9,6.5,6.5,0,0,0-1.482-.967c-.037-.016-.167-.065-.2-.074a7.714,7.714,0,0,0-1.593-.312,3.209,3.209,0,0,1-1.761-.519,3.208,3.208,0,0,1-.519-1.761,6.821,6.821,0,0,0-.386-1.788,6.5,6.5,0,0,0-.967-1.482,3.2,3.2,0,0,1-.9-1.666,3.2,3.2,0,0,1,.9-1.666,6.5,6.5,0,0,0,.967-1.482A6.815,6.815,0,0,0,46.129,9.9a3.208,3.208,0,0,1,.519-1.761,3.209,3.209,0,0,1,1.761-.519A6.822,6.822,0,0,0,50.2,7.237,6.5,6.5,0,0,0,51.68,6.27a3.208,3.208,0,0,1,1.664-.9h.006a3.208,3.208,0,0,1,1.664.9,6.5,6.5,0,0,0,1.482.967,6.818,6.818,0,0,0,1.789.386,3.208,3.208,0,0,1,1.761.519A3.208,3.208,0,0,1,60.565,9.9a6.821,6.821,0,0,0,.386,1.788,6.5,6.5,0,0,0,.967,1.482,3.2,3.2,0,0,1,.9,1.666,3.2,3.2,0,0,1-.9,1.666Z"/>
      <path id="Trazado_30" data-name="Trazado 30" class="svg-color" d="M346.58,89.7l-2.639-.747-1.526-2.279a.98.98,0,0,0-1.628,0l-1.526,2.279-2.639.747a.979.979,0,0,0-.5,1.548l1.7,2.155-.105,2.74a.979.979,0,0,0,1.317.957l2.574-.947,2.574.947a.979.979,0,0,0,1.317-.957l-.105-2.74,1.7-2.155a.98.98,0,0,0-.5-1.548Zm-2.542,2.91a.981.981,0,0,0-.209.643l.08,2.1-1.97-.725a.981.981,0,0,0-.676,0l-1.97.725.081-2.1a.983.983,0,0,0-.209-.643l-1.3-1.649,2.02-.571a.981.981,0,0,0,.547-.4l1.168-1.744,1.168,1.744a.982.982,0,0,0,.547.4l2.02.571Z" transform="translate(-288.255 -77.324)"/>
    </g>
  </g>
</svg>
