<svg xmlns="http://www.w3.org/2000/svg" width="76.436" height="61.363" viewBox="0 0 76.436 61.363">
  <defs>
    <style>
      .svg-color {
        fill: #12151e;
      }
    </style>
  </defs>
  <path id="Trazado_31" data-name="Trazado 31" class="svg-color" d="M153.508,108.536l10.307-3.762a2.337,2.337,0,0,0,0-4.392L129.823,87.978a7.855,7.855,0,0,0-5.38,0L90.451,100.383a2.338,2.338,0,0,0,0,4.392l10.307,3.762v20.277a4.823,4.823,0,0,0,1.494,3.46,25.249,25.249,0,0,0,2.963,2.383h0a6.078,6.078,0,0,0-1.816,4.31v1.154a2.45,2.45,0,0,0,.438,1.4l-1.667,3.843a1.715,1.715,0,1,0,3.148,1.365l1.571-3.622q.337.108.68.185v3.862a1.715,1.715,0,0,0,3.431,0v-3.862q.343-.077.68-.185l1.571,3.622a1.715,1.715,0,1,0,3.148-1.365l-1.667-3.843a2.451,2.451,0,0,0,.438-1.4v-.885a44.063,44.063,0,0,0,11.965,1.63c8.759,0,18.574-2.643,24.881-8.592a4.838,4.838,0,0,0,1.493-3.46C153.508,126.519,153.508,110.861,153.508,108.536ZM125.619,91.2a4.42,4.42,0,0,1,3.027,0l31.177,11.378-31.177,11.378a4.422,4.422,0,0,1-3.028,0l-11.983-4.373,9.914-4.9.893.326a7.857,7.857,0,0,0,5.38,0l1.582-.577a2.461,2.461,0,0,0,1.613-2.3v-1.264a5.914,5.914,0,0,0-5.773-5.884,5.793,5.793,0,0,0-4.181,1.683,6.078,6.078,0,0,0-1.816,4.31V102c-12.514,6.181-11.715,5.77-12.023,5.976l-14.783-5.4Zm-.94,10.247v-.471a2.628,2.628,0,0,1,.788-1.861,2.378,2.378,0,0,1,1.713-.7,2.466,2.466,0,0,1,2.407,2.454v.58l-.94.343a4.421,4.421,0,0,1-3.027,0Zm-17.112,22.51a22.087,22.087,0,0,1-2.961-2.33,1.33,1.33,0,0,1-.417-.964V109.789l3.38,1.234C107.566,111.243,107.567,109.538,107.567,123.957Zm-.739,15.48a2.874,2.874,0,0,1,.788-2.332,2.385,2.385,0,0,1,1.713-.7c1.761.033,2.406,1.278,2.406,3.033-2.061.752-2.43.9-4.908,0Zm.739-7.331a22.345,22.345,0,0,1-2.7-2.088,1.536,1.536,0,0,1-.682-1.205v-3.05a28.483,28.483,0,0,0,3.378,2.2Zm6.352,3.133A5.857,5.857,0,0,0,111,133.227v-3.605a40.908,40.908,0,0,0,11.976,2.9,1.715,1.715,0,0,0,.311-3.417A36.791,36.791,0,0,1,111,125.882V112.274l13.445,4.907a7.856,7.856,0,0,0,5.38,0h0l20.254-7.392v10.875a1.33,1.33,0,0,1-.417.964c-4.312,4.067-11.12,6.794-18.679,7.482a1.715,1.715,0,0,0,.311,3.417c7.275-.661,13.97-3.091,18.786-6.762v3.05a1.342,1.342,0,0,1-.417.964c-5.7,5.375-14.669,7.657-22.527,7.657a39.713,39.713,0,0,1-13.213-2.2Z" transform="translate(-88.915 -87.503)"/>
</svg>
