<svg xmlns="http://www.w3.org/2000/svg" xmlns:xlink="http://www.w3.org/1999/xlink" width="63" height="63" viewBox="0 0 63 63">
  <defs>
    <style>
      .cls-1 {
        fill: none;
      }

      .cls-2 {
        clip-path: url(#clip-path);
      }

      .svg-color {
        fill: #12151e;
      }
    </style>
    <clipPath id="clip-path">
      <rect class="cls-1" width="63" height="63"/>
    </clipPath>
  </defs>
  <g id="competence" class="cls-2">
    <g id="competence-2" data-name="competence" transform="translate(-1 -1)">
      <path id="Trazado_10" data-name="Trazado 10" class="svg-color" d="M54.758,27.161H52.726a3.052,3.052,0,0,0-3.048,3.048V30.6l-.382.191a2.985,2.985,0,0,0-.776,4.78l1.158,1.158v9.094a.545.545,0,0,1-.627.539l-.575-.088a6.8,6.8,0,0,0-2.433-3.093c-.9-.754-1.446-1.252-1.446-1.791a12.309,12.309,0,0,1,.478-3.31,14.186,14.186,0,0,0,.539-3.8,8.78,8.78,0,0,0-2.032-5.466v-.123a11.685,11.685,0,1,0-23.371,0v6.982a6.188,6.188,0,0,0-3.048,5.72,6.848,6.848,0,0,0,1.852,4.471l-3.256.5a.545.545,0,0,1-.628-.539V36.726l1.158-1.158a2.985,2.985,0,0,0-.777-4.779l-.382-.191V30.21a3.052,3.052,0,0,0-3.048-3.048H10.048A3.052,3.052,0,0,0,7,30.21V46.88A7.378,7.378,0,0,0,15.295,54.2l4.915-.614V63.742H44.6V53.589l4.915.614a7.379,7.379,0,0,0,8.295-7.322V30.21a3.052,3.052,0,0,0-3.048-3.048ZM50.2,32.607l1.5-.753V30.21a1.017,1.017,0,0,1,1.016-1.016h2.032a1.017,1.017,0,0,1,1.016,1.016V35.29h-4.66l-1.158-1.158a.952.952,0,0,1,.249-1.525ZM21.547,37.271l.7-.232V28.685a9.653,9.653,0,1,1,19.306,0v.929l.3.3a6.714,6.714,0,0,1,1.735,4.362,12.308,12.308,0,0,1-.478,3.31,14.186,14.186,0,0,0-.539,3.8c0,1.527,1.154,2.495,2.172,3.348a10.425,10.425,0,0,1,1.235,1.15L37.484,44.58V42.642a8.114,8.114,0,0,0,3.048-6.336V28.177H35.05A11.046,11.046,0,0,1,28.9,26.316l-.563-.376-4.064,2.71v7.656a8.128,8.128,0,0,0,4.038,7.013,2.673,2.673,0,0,1-.565,1.606l-.654.718.687.687a3.85,3.85,0,0,1,1.574,3.161l-.065.844a6.97,6.97,0,0,1-3.538,4.874,11.353,11.353,0,0,0-2.411-2.637c-.425-.374-.79-.706-1.1-1.024v0h0a2.874,2.874,0,0,1-1.014-2.032,4.243,4.243,0,0,1,.244-1.462,21.841,21.841,0,0,0,4.48,2.413l.714-1.9c-2.078-.778-7.471-3.587-7.471-7.177,0-3.238,2.266-4.086,2.353-4.116ZM32.4,42.4a6.1,6.1,0,0,1-6.1-6.1V29.737l2.049-1.366a13.068,13.068,0,0,0,6.7,1.838H38.5v6.1A6.1,6.1,0,0,1,32.4,42.4Zm0,2.032a8.073,8.073,0,0,0,3.048-.6v1.194L31.982,48.5h-.675a5.342,5.342,0,0,0-1.5-3,4.735,4.735,0,0,0,.445-1.361,8.106,8.106,0,0,0,2.153.3Zm-1.089,6.1h.669l1.027,1.027L34.3,61.709H30.452l.858-11.145c0-.011,0-.021,0-.033Zm2.526-1.016,2.982-2.982.165.025-1.11,4.993ZM10.048,29.193h2.032A1.017,1.017,0,0,1,13.1,30.21v1.644l1.5.753a.952.952,0,0,1,.249,1.525L13.692,35.29H9.032V30.21A1.017,1.017,0,0,1,10.048,29.193Zm4.994,22.993a5.346,5.346,0,0,1-6.01-5.306V37.322H13.1v8.5a2.56,2.56,0,0,0,.755,1.822,2.588,2.588,0,0,0,2.214.724l3.341-.514a6.434,6.434,0,0,0-.213,1.662,4.229,4.229,0,0,0,.55,2.09Zm7.2,2.133a6.523,6.523,0,0,1,2.085,2.631l.37,1.112,1.048-.524a11.719,11.719,0,0,0,3.163-2.249l-.494,6.421H22.242Zm31.966-3.658a5.31,5.31,0,0,1-4.445,1.525l-5.041-.63-2.158-.008V61.709H36.347l-.991-7.8,1.7,1.7L39,46.869l9.742,1.5a2.593,2.593,0,0,0,2.213-.724,2.56,2.56,0,0,0,.755-1.822v-8.5h4.064V46.88a5.317,5.317,0,0,1-1.566,3.781Z" transform="translate(0.097 0.258)"/>
      <path id="Trazado_11" data-name="Trazado 11" class="svg-color" d="M32.113,15.226A7.113,7.113,0,1,0,25,8.113,7.121,7.121,0,0,0,32.113,15.226Zm0-12.193a5.081,5.081,0,1,1-5.081,5.081A5.086,5.086,0,0,1,32.113,3.032Z" transform="translate(0.387 0)"/>
      <path id="Trazado_12" data-name="Trazado 12" class="svg-color" d="M35.827,6.73,34.39,5.293,31.044,8.639,29.73,7.325,28.293,8.762l2.751,2.751Z" transform="translate(0.44 0.069)"/>
      <path id="Trazado_13" data-name="Trazado 13" class="svg-color" d="M10.145,25.387a4.069,4.069,0,0,0,4.064-4.064V19.5a1.982,1.982,0,0,1,.876-1.665,9.147,9.147,0,1,0-9.858.014,2,2,0,0,1,.854,1.694v1.778A4.069,4.069,0,0,0,10.145,25.387Zm0-2.032a2.034,2.034,0,0,1-2.032-2.032h4.064A2.034,2.034,0,0,1,10.145,23.355ZM9.129,10.145a1.016,1.016,0,1,1,1.016,1.016A1.017,1.017,0,0,1,9.129,10.145Zm-6.036-.94A7.14,7.14,0,0,1,9.312,3.079a7.585,7.585,0,0,1,.841-.047,7.034,7.034,0,0,1,4.729,1.807,7.109,7.109,0,0,1-.9,11.288,3.958,3.958,0,0,0-1.8,3.163H11.161V13.006a3.048,3.048,0,1,0-2.032,0V19.29H8.1A3.956,3.956,0,0,0,6.32,16.138,7.087,7.087,0,0,1,3.093,9.205Z" transform="translate(0 0)"/>
      <path id="Trazado_14" data-name="Trazado 14" class="svg-color" d="M63.355,9.412,60.86,8.58l1.176-2.351-3.91-3.91L55.773,3.5,54.942,1H49.413l-.831,2.5L46.23,2.319l-3.91,3.91L43.5,8.58,41,9.412v5.529l2.495.832-1.176,2.351,3.91,3.91,2.352-1.177.831,2.5h5.529l.831-2.5,2.352,1.177,3.91-3.91-1.176-2.351,2.5-.832Zm-2.032,4.064-2.331.777-.172.448c-.051.13-.1.259-.157.385l-.2.44,1.1,2.2-1.838,1.838-2.2-1.1-.44.2c-.125.056-.252.107-.381.155l-.452.171-.778,2.335h-2.6L50.1,18.987l-.452-.171c-.129-.049-.256-.1-.381-.155l-.44-.2-2.2,1.1L44.79,17.724l1.1-2.2-.2-.44c-.057-.127-.107-.255-.157-.385l-.172-.448-2.33-.777v-2.6l2.331-.777.172-.448c.051-.13.1-.259.157-.385l.2-.44-1.1-2.2,1.838-1.838,2.2,1.1.44-.2c.125-.056.252-.107.381-.155l.452-.171.778-2.334h2.6l.778,2.335.452.171c.129.049.256.1.381.155l.44.2,2.2-1.1L59.565,6.63l-1.1,2.2.2.44c.057.127.107.255.157.385l.172.448,2.33.777Z" transform="translate(0.645 0)"/>
      <path id="Trazado_15" data-name="Trazado 15" class="svg-color" d="M52.081,7a5.081,5.081,0,1,0,5.081,5.081A5.086,5.086,0,0,0,52.081,7Zm0,8.129a3.048,3.048,0,1,1,3.048-3.048A3.052,3.052,0,0,1,52.081,15.129Z" transform="translate(0.742 0.097)"/>
    </g>
  </g>
</svg>
